<svg width="16" height="16" xmlns="http://www.w3.org/2000/svg">

 <g>
  <title>background</title>
  <rect fill="none" id="canvas_background" height="18" width="18" y="-1" x="-1"/>
 </g>
 <g>
  <title>Layer 1</title>
  <g stroke="null" id="svg_1">
   <path stroke="null" id="svg_2" d="m10.96286,3.465816c0.297782,-0.311632 -0.297782,-0.934196 -0.596266,-0.622563l-6.912696,7.222246c0,0 -1.549155,1.619108 -0.119108,3.112862c1.430024,1.494455 2.979903,-0.124653 2.979903,-0.124653l7.270722,-7.595526c0,0 1.907182,-1.992366 -0.119108,-4.109407c-2.026312,-2.117019 -3.933517,-0.124653 -3.933517,-0.124653l-7.2707,7.596228c0,0 -2.740985,2.864257 -0.119131,5.603839s5.363541,-0.124653 5.363541,-0.124653l7.270745,-7.596228c0.297782,-0.310931 -0.297782,-0.934196 -0.596266,-0.622563l-7.270021,7.595549c0,0 -2.145421,2.241672 -4.171733,0.124653c-2.02629,-2.117019 0.119131,-4.357989 0.119131,-4.357989l7.270021,-7.59625c0,0 1.310938,-1.369802 2.741687,0.124653c1.430024,1.494455 0.119108,2.864257 0.119108,2.864257l-7.270043,7.595526c0,0 -0.953591,0.996522 -1.788073,0.124653s0.119108,-1.867713 0.119108,-1.867713l6.912696,-7.222269z"/>
  </g>
  <g id="svg_3"/>
  <g id="svg_4"/>
  <g id="svg_5"/>
  <g id="svg_6"/>
  <g id="svg_7"/>
  <g id="svg_8"/>
  <g id="svg_9"/>
  <g id="svg_10"/>
  <g id="svg_11"/>
  <g id="svg_12"/>
  <g id="svg_13"/>
  <g id="svg_14"/>
  <g id="svg_15"/>
  <g id="svg_16"/>
  <g id="svg_17"/>
 </g>
</svg>